Coordinates
version=1
nRows=10
nColumns=40
inDegrees=yes

Units are S.I. units (second, meters, Newtons, ...)
Angles are in degrees.

endheader
time	pelvis_tilt	pelvis_list	pelvis_rotation	pelvis_tx	pelvis_ty	pelvis_tz	hip_flexion_r	hip_adduction_r	hip_rotation_r	knee_angle_r	knee_angle_r_beta	ankle_angle_r	subtalar_angle_r	mtp_angle_r	hip_flexion_l	hip_adduction_l	hip_rotation_l	knee_angle_l	knee_angle_l_beta	ankle_angle_l	subtalar_angle_l	mtp_angle_l	lumbar_extension	lumbar_bending	lumbar_rotation	arm_flex_r	arm_add_r	arm_rot_r	elbow_flex_r	pro_sup_r	wrist_flex_r	wrist_dev_r	arm_flex_l	arm_add_l	arm_rot_l	elbow_flex_l	pro_sup_l	wrist_flex_l	wrist_dev_l
      1.66000000	      0.37941596	      3.94288152	      3.17293009	      0.51356239	      0.96535254	     -1.10392378	     21.81096898	    -15.59229838	    -22.47071098	    -37.93070210	     -0.66201564	      2.94212613	    -12.59270027	     16.60423994	     -1.24885936	     -6.11466818	     10.60696420	     -8.41035437	     -0.14678837	      3.32397206	     -1.45009233	     -2.96147398	     -4.76120323	     -4.07508715	     -6.77588373	      0.21615893	    -10.57436442	    -15.75621886	     20.92430564	     89.95437384	      0.00000000	      0.00000000	     12.65191870	     15.39345461	      0.78766335	     29.06878960	     89.95437384	      0.00000000	      0.00000000
      1.67000000	      0.05512299	      4.13718727	      3.23129711	      0.52126076	      0.96426600	     -1.10439766	     22.80252418	    -15.58823983	    -22.83051193	    -36.13531674	     -0.63068025	      3.09386006	    -12.14947532	     16.47520579	     -1.45200002	     -6.36706794	     10.79739164	     -8.36150028	     -0.14593571	      3.61243356	     -1.49882446	     -3.05470685	     -4.47078763	     -4.29982671	     -7.07686948	     -0.19252347	    -10.58851899	    -15.77102970	     20.77479079	     89.95437384	      0.00000000	      0.00000000	     13.42518385	     15.75967054	      0.66353262	     29.51289886	     89.95437384	      0.00000000	      0.00000000
      1.68000000	      0.42511800	      3.55736651	      3.55082232	      0.52932234	      0.96445940	     -1.10444162	     22.39298817	    -14.61037091	    -23.66549692	    -33.41360701	     -0.58317746	      2.85537674	    -10.59676089	     16.22697953	     -2.36105278	     -5.60567206	     10.72278511	     -8.40431945	     -0.14668305	      3.85744168	     -2.14250306	     -3.91048466	     -4.97220755	     -3.63504119	     -7.46446454	     -0.43230070	    -10.47129507	    -16.96043322	     20.47193957	     89.95437384	      0.00000000	      0.00000000	     14.35830671	     16.24589230	     -0.33290358	     29.97714485	     89.95437384	      0.00000000	      0.00000000
      1.69000000	      0.45576104	      3.41741133	      3.63282861	      0.53728321	      0.96387251	     -1.10438022	     22.65122552	    -14.09234888	    -24.02831785	    -31.11897201	     -0.54312852	      2.76698985	     -9.59374118	     15.90451748	     -2.88609274	     -5.38023671	     10.96270308	     -8.49460213	     -0.14825878	      4.21822765	     -2.42610162	     -4.55110215	     -5.08005843	     -3.48380507	     -7.66358357	     -0.73793968	    -10.44936073	    -17.44037276	     20.15941153	     89.95437384	      0.00000000	      0.00000000	     15.18176293	     16.65475498	     -0.82782096	     30.39986146	     89.95437384	      0.00000000	      0.00000000
      1.70000000	      0.24602333	      3.45846773	      3.58142799	      0.54519270	      0.96279364	     -1.10417779	     23.25502523	    -13.73359331	    -24.14773456	    -28.87127590	     -0.50389882	      2.72288425	     -8.59401890	     15.75989902	     -3.22915518	     -5.41907756	     10.98946103	     -8.44050918	     -0.14731468	      4.47982790	     -2.49981387	     -4.81117276	     -4.90562234	     -3.55265737	     -7.76256870	     -1.08788538	    -10.47526406	    -17.48196821	     19.92700643	     89.95437384	      0.00000000	      0.00000000	     15.87479850	     17.00236178	     -1.05663475	     30.81577446	     89.95437384	      0.00000000	      0.00000000
      1.71000000	      0.49994218	      3.25705550	      3.64946324	      0.55346326	      0.96242447	     -1.10397768	     23.08051274	    -13.13044526	    -24.70149927	    -26.39644598	     -0.46070489	      2.76017710	     -7.21621941	     15.31307053	     -4.06601162	     -5.09930395	     11.28640160	     -8.42398678	     -0.14702631	      4.71294296	     -2.91173849	     -5.66049534	     -5.24794868	     -3.30351030	     -7.92591645	     -1.35634598	    -10.43446994	    -18.29913495	     19.63455440	     89.95437384	      0.00000000	      0.00000000	     16.63623517	     17.30021211	     -1.36130126	     31.18917074	     89.95437384	      0.00000000	      0.00000000
      1.72000000	      0.49406057	      3.16723021	      3.66038163	      0.56152974	      0.96153659	     -1.10368132	     23.27941110	    -12.63526142	    -24.94555658	    -24.06716926	     -0.42005135	      2.73374179	     -5.94261428	     14.88940060	     -4.54238031	     -4.93883101	     11.45459275	     -8.55372544	     -0.14929067	      5.08988200	     -2.96478736	     -6.31735705	     -5.31395100	     -3.20005054	     -8.05784214	     -1.67234656	    -10.46649781	    -18.49296599	     19.36949210	     89.95437384	      0.00000000	      0.00000000	     17.29749235	     17.55094925	     -1.41087841	     31.52780734	     89.95437384	      0.00000000	      0.00000000
      1.73000000	      0.18150196	      3.35869934	      3.57480932	      0.56936001	      0.96004820	     -1.10342729	     23.94613233	    -12.42082995	    -24.76357746	    -21.95146354	     -0.38312531	      2.68614371	     -4.84443619	     14.70791998	     -4.70638487	     -5.15894499	     11.48902312	     -8.64767380	     -0.15093038	      5.31772308	     -3.03750218	     -6.51153762	     -5.05409603	     -3.42540262	     -8.11529255	     -2.03157893	    -10.51143258	    -18.53727814	     19.21675789	     89.95437384	      0.00000000	      0.00000000	     17.81819405	     17.85252082	     -1.49253843	     31.95758184	     89.95437384	      0.00000000	      0.00000000
      1.74000000	      0.31708035	      3.10765785	      3.52756349	      0.57770646	      0.95927741	     -1.10276333	     23.84222512	    -11.71015691	    -25.14651846	    -19.54469832	     -0.34111934	      2.61520128	     -3.15559261	     14.17713206	     -5.36685737	     -4.77937481	     11.76085747	     -8.75668953	     -0.15283306	      5.74561953	     -3.11311184	     -7.15543610	     -5.25092263	     -3.13862964	     -8.13368534	     -2.23957465	    -10.54290477	    -19.01533963	     18.82452032	     89.95437384	      0.00000000	      0.00000000	     18.39790058	     18.01225873	     -1.46770949	     32.27206870	     89.95437384	      0.00000000	      0.00000000
      1.75000000	     -0.00362393	      3.31212132	      3.49174334	      0.58565069	      0.95763635	     -1.10237569	     24.45210882	    -11.53746242	    -25.03152917	    -17.57639040	     -0.30676588	      2.72649504	     -2.03374748	     13.97884664	     -5.52897154	     -4.97983400	     11.78804900	     -8.83172349	     -0.15414265	      6.01309236	     -3.23773051	     -7.37000004	     -4.98883791	     -3.37049555	     -8.24174192	     -2.56195777	    -10.57232196	    -19.10720954	     18.67860377	     89.95437384	      0.00000000	      0.00000000	     18.80099185	     18.24134184	     -1.34871865	     32.65039202	     89.95437384	      0.00000000	      0.00000000
